<?xml version="1.0" standalone="no"?>
<!DOCTYPE svg PUBLIC "-//W3C//DTD SVG 20010904//EN"
 "http://www.w3.org/TR/2001/REC-SVG-20010904/DTD/svg10.dtd">
<svg version="1.0" xmlns="http://www.w3.org/2000/svg"
 width="225.000000pt" height="225.000000pt" viewBox="0 0 225.000000 225.000000"
 preserveAspectRatio="xMidYMid meet">

<g transform="translate(0.000000,225.000000) scale(0.100000,-0.100000)"
fill="#000000" stroke="none">
<path d="M659 2231 c-22 -18 -24 -27 -27 -138 l-4 -119 -71 -17 c-137 -32
-232 -127 -264 -264 l-17 -71 -119 -4 c-111 -3 -120 -5 -138 -27 -25 -30 -24
-62 1 -89 19 -20 30 -22 140 -22 l120 0 0 -75 0 -75 -124 0 c-118 0 -126 -1
-140 -22 -22 -31 -20 -64 4 -88 18 -18 33 -20 140 -20 l120 0 0 -75 0 -75
-120 0 c-107 0 -122 -2 -140 -20 -24 -24 -26 -57 -4 -88 14 -21 22 -22 140
-22 l124 0 0 -75 0 -75 -120 0 c-107 0 -122 -2 -140 -20 -25 -25 -26 -61 -1
-91 18 -22 27 -24 138 -27 l119 -4 17 -71 c34 -147 141 -246 294 -271 l41 -7
4 -121 c3 -112 5 -121 27 -139 30 -25 62 -24 89 1 20 19 22 30 22 140 l0 120
75 0 75 0 0 -124 c0 -118 1 -126 22 -140 31 -22 64 -20 88 4 18 18 20 33 20
140 l0 120 75 0 75 0 0 -120 c0 -107 2 -122 20 -140 24 -24 57 -26 88 -4 21
14 22 22 22 140 l0 124 75 0 75 0 0 -120 c0 -110 2 -121 22 -140 27 -25 59
-26 89 -1 22 18 24 27 27 138 l4 119 71 17 c137 32 232 127 264 264 l17 71
119 4 c111 3 120 5 138 27 25 30 24 62 -1 89 -19 20 -30 22 -140 22 l-120 0 0
75 0 75 124 0 c118 0 126 1 140 22 22 31 20 64 -4 88 -18 18 -33 20 -140 20
l-120 0 0 75 0 75 120 0 c107 0 122 2 140 20 24 24 26 57 4 88 -14 21 -22 22
-140 22 l-124 0 0 75 0 75 120 0 c110 0 121 2 140 22 25 27 26 59 1 89 -18 22
-27 24 -138 27 l-119 4 -17 71 c-32 137 -127 232 -264 264 l-71 17 -4 119 c-3
111 -5 120 -27 138 -30 25 -66 24 -91 -1 -18 -18 -20 -33 -20 -140 l0 -120
-75 0 -75 0 0 124 c0 118 -1 126 -22 140 -31 22 -64 20 -88 -4 -18 -18 -20
-33 -20 -140 l0 -120 -75 0 -75 0 0 120 c0 107 -2 122 -20 140 -24 24 -57 26
-88 4 -21 -14 -22 -22 -22 -140 l0 -124 -75 0 -75 0 0 120 c0 110 -2 121 -22
140 -27 25 -59 26 -89 1z m1041 -422 c60 -27 79 -45 106 -104 l24 -50 0 -530
c0 -511 -1 -532 -21 -575 -27 -60 -45 -79 -104 -106 l-50 -24 -530 0 -530 0
-50 24 c-59 27 -77 46 -104 106 -20 43 -21 63 -21 575 0 512 1 532 21 575 27
60 45 79 104 106 l50 24 530 0 c511 0 532 -1 575 -21z"/>
<path d="M851 1535 c-61 -19 -118 -78 -136 -139 -21 -70 -21 -472 -1 -541 20
-65 76 -121 140 -140 70 -21 472 -21 541 -1 65 20 121 76 140 140 21 71 21
471 0 542 -19 64 -75 120 -140 140 -66 19 -480 19 -544 -1z m536 -148 c16 -16
18 -41 18 -262 0 -221 -2 -246 -18 -262 -16 -16 -41 -18 -262 -18 -221 0 -246
2 -262 18 -16 16 -18 43 -21 245 -3 241 2 276 40 292 13 5 127 8 255 7 208 -2
234 -4 250 -20z"/>
</g>
</svg>
